<?xml version="1.0" standalone="no"?>
<!DOCTYPE svg PUBLIC "-//W3C//DTD SVG 20010904//EN"
 "http://www.w3.org/TR/2001/REC-SVG-20010904/DTD/svg10.dtd">
<svg version="1.0" xmlns="http://www.w3.org/2000/svg"
 width="1024.000000pt" height="1024.000000pt" viewBox="0 0 1024.000000 1024.000000"
 preserveAspectRatio="xMidYMid meet">
<metadata>
Created by potrace 1.14, written by Peter Selinger 2001-2017
</metadata>
<g transform="translate(0.000000,1024.000000) scale(0.100000,-0.100000)"
fill="#000000" stroke="none">
<path d="M2418 9574 c-60 -18 -130 -87 -151 -148 -14 -39 -15 -510 -14 -4168
l2 -4123 23 -46 c26 -54 68 -94 125 -119 34 -15 69 -19 216 -20 96 0 177 -3
180 -6 3 -2 6 -55 7 -118 1 -87 6 -123 21 -157 24 -55 78 -111 135 -141 l43
-23 2370 0 2370 0 48 24 c63 31 105 74 135 139 l24 54 0 4058 c0 3197 -2 4066
-12 4097 -21 64 -79 131 -140 161 -50 25 -67 27 -192 30 l-136 3 -4 172 c-3
167 -4 173 -31 219 -32 55 -76 92 -134 112 -60 21 -4814 21 -4885 0z"/>
</g>
</svg>
